<svg id="visual" viewBox="0 0 1900 1080" width="1900" height="1080" xmlns="http://www.w3.org/2000/svg" xmlns:xlink="http://www.w3.org/1999/xlink" version="1.1"><rect x="0" y="0" width="1900" height="1080" fill="#ffffff"></rect><path d="M0 795L238 720L475 780L713 807L950 856L1188 829L1425 718L1663 789L1900 817L1900 1081L1663 1081L1425 1081L1188 1081L950 1081L713 1081L475 1081L238 1081L0 1081Z" fill="#3d4ba4"></path><path d="M0 885L238 882L475 897L713 872L950 860L1188 834L1425 851L1663 780L1900 792L1900 1081L1663 1081L1425 1081L1188 1081L950 1081L713 1081L475 1081L238 1081L0 1081Z" fill="#5263b8"></path><path d="M0 891L238 927L475 841L713 940L950 918L1188 879L1425 931L1663 909L1900 881L1900 1081L1663 1081L1425 1081L1188 1081L950 1081L713 1081L475 1081L238 1081L0 1081Z" fill="#687bcc"></path><path d="M0 953L238 928L475 938L713 905L950 969L1188 945L1425 978L1663 913L1900 974L1900 1081L1663 1081L1425 1081L1188 1081L950 1081L713 1081L475 1081L238 1081L0 1081Z" fill="#7f94e0"></path><path d="M0 1008L238 1013L475 976L713 1005L950 992L1188 999L1425 977L1663 992L1900 963L1900 1081L1663 1081L1425 1081L1188 1081L950 1081L713 1081L475 1081L238 1081L0 1081Z" fill="#96adf3"></path></svg>