<svg id="visual" viewBox="0 0 1900 1080" width="1900" height="1080" xmlns="http://www.w3.org/2000/svg" xmlns:xlink="http://www.w3.org/1999/xlink" version="1.1"><rect x="0" y="0" width="1900" height="1080" fill="#efefef"></rect><path d="M0 862L238 762L475 858L713 752L950 737L1188 731L1425 865L1663 737L1900 822L1900 1081L1663 1081L1425 1081L1188 1081L950 1081L713 1081L475 1081L238 1081L0 1081Z" fill="#96adf3"></path><path d="M0 814L238 895L475 895L713 889L950 789L1188 868L1425 779L1663 793L1900 837L1900 1081L1663 1081L1425 1081L1188 1081L950 1081L713 1081L475 1081L238 1081L0 1081Z" fill="#7f94e0"></path><path d="M0 845L238 844L475 865L713 870L950 859L1188 875L1425 933L1663 865L1900 875L1900 1081L1663 1081L1425 1081L1188 1081L950 1081L713 1081L475 1081L238 1081L0 1081Z" fill="#687bcc"></path><path d="M0 938L238 902L475 963L713 976L950 965L1188 955L1425 919L1663 901L1900 919L1900 1081L1663 1081L1425 1081L1188 1081L950 1081L713 1081L475 1081L238 1081L0 1081Z" fill="#5263b8"></path><path d="M0 1014L238 971L475 1014L713 979L950 973L1188 986L1425 963L1663 1013L1900 995L1900 1081L1663 1081L1425 1081L1188 1081L950 1081L713 1081L475 1081L238 1081L0 1081Z" fill="#3d4ba4"></path></svg>