<svg id="visual" viewBox="0 0 1900 1080" width="1900" height="1080" xmlns="http://www.w3.org/2000/svg" xmlns:xlink="http://www.w3.org/1999/xlink" version="1.1"><rect x="0" y="0" width="1900" height="1080" fill="#ffffff"></rect><path d="M0 633L271 794L543 752L814 778L1086 671L1357 721L1629 629L1900 682L1900 1081L1629 1081L1357 1081L1086 1081L814 1081L543 1081L271 1081L0 1081Z" fill="#96adf3"></path><path d="M0 759L271 717L543 779L814 764L1086 857L1357 853L1629 825L1900 716L1900 1081L1629 1081L1357 1081L1086 1081L814 1081L543 1081L271 1081L0 1081Z" fill="#7f94e0"></path><path d="M0 859L271 806L543 921L814 838L1086 891L1357 889L1629 916L1900 796L1900 1081L1629 1081L1357 1081L1086 1081L814 1081L543 1081L271 1081L0 1081Z" fill="#687bcc"></path><path d="M0 880L271 907L543 924L814 953L1086 874L1357 959L1629 904L1900 888L1900 1081L1629 1081L1357 1081L1086 1081L814 1081L543 1081L271 1081L0 1081Z" fill="#5263b8"></path><path d="M0 983L271 992L543 994L814 945L1086 992L1357 1032L1629 951L1900 990L1900 1081L1629 1081L1357 1081L1086 1081L814 1081L543 1081L271 1081L0 1081Z" fill="#3d4ba4"></path></svg>